HIERARCHY
ROOT Hips
{
  OFFSET 13.6774 106.653 -34.4427
  CHANNELS 6 Xposition Yposition Zposition Zrotation Xrotation Yrotation
  JOINT ToSpine
  {
    OFFSET -2.69724 7.43032 -0.144315
    CHANNELS 3 Zrotation Xrotation Yrotation
    JOINT Spine
    {
      OFFSET -0.0310711 10.7595 1.96963
      CHANNELS 3 Zrotation Xrotation Yrotation
      JOINT Spine1
      {
        OFFSET 19.9056 3.91189 0.764692
        CHANNELS 3 Zrotation Xrotation Yrotation
        JOINT Neck
        {
          OFFSET 25.9749 7.03908 -0.130764
          CHANNELS 3 Zrotation Xrotation Yrotation
          JOINT Head
          {
            OFFSET 9.52751 0.295786 -0.907742
            CHANNELS 3 Zrotation Xrotation Yrotation
            End Site
            {
              OFFSET 16.4037 0.713936 2.7358
            }
          }
        }
        JOINT LeftShoulder
        {
          OFFSET 17.7449 4.33886 11.7777
          CHANNELS 3 Zrotation Xrotation Yrotation
          JOINT LeftArm
          {
            OFFSET 0.911315 1.27913 9.80584
            CHANNELS 3 Zrotation Xrotation Yrotation
            JOINT LeftForeArm
            {
              OFFSET 28.6126 1.18197 -3.53199
              CHANNELS 3 Zrotation Xrotation Yrotation
              JOINT LeftHand
              {
                OFFSET 27.5088 0.0218783 0.327423
                CHANNELS 3 Zrotation Xrotation Yrotation
                End Site
                {
                  OFFSET 18.6038 -0.000155887 0.382096
                }
              }
            }
          }
        }
        JOINT RightShoulder
        {
          OFFSET 17.1009 2.89543 -12.2328
          CHANNELS 3 Zrotation Xrotation Yrotation
          JOINT RightArm
          {
            OFFSET 1.4228 0.178766 -10.211
            CHANNELS 3 Zrotation Xrotation Yrotation
            JOINT RightForeArm
            {
              OFFSET 28.733 1.87905 2.64907
              CHANNELS 3 Zrotation Xrotation Yrotation
              JOINT RightHand
              {
                OFFSET 27.4588 0.290562 -0.101845
                CHANNELS 3 Zrotation Xrotation Yrotation
                End Site
                {
                  OFFSET 17.8396 -0.255518 -0.000602873
                }
              }
            }
          }
        }
      }
    }
  }
  JOINT LeftUpLeg
  {
    OFFSET -5.61296 -2.22332 -10.2353
    CHANNELS 3 Zrotation Xrotation Yrotation
    JOINT LeftLeg
    {
      OFFSET 2.56703 -44.7417 -7.93097
      CHANNELS 3 Zrotation Xrotation Yrotation
      JOINT LeftFoot
      {
        OFFSET 3.16933 -46.5642 -3.96578
        CHANNELS 3 Zrotation Xrotation Yrotation
        JOINT LeftToeBase
        {
          OFFSET 0.346054 -6.02161 12.8035
          CHANNELS 3 Zrotation Xrotation Yrotation
          End Site
          {
            OFFSET 0.134235 -1.35082 5.13018
          }
        }
      }
    }
  }
  JOINT RightUpLeg
  {
    OFFSET -5.7928 -1.72406 10.6446
    CHANNELS 3 Zrotation Xrotation Yrotation
    JOINT RightLeg
    {
      OFFSET -2.57161 -44.7178 -7.85259
      CHANNELS 3 Zrotation Xrotation Yrotation
      JOINT RightFoot
      {
        OFFSET -3.10148 -46.5936 -4.03391
        CHANNELS 3 Zrotation Xrotation Yrotation
        JOINT RightToeBase
        {
          OFFSET -0.0828122 -6.13587 12.8035
          CHANNELS 3 Zrotation Xrotation Yrotation
          End Site
          {
            OFFSET -0.131328 -1.35082 5.13018
          }
        }
      }
    }
  }
}
MOTION
Frames: 14
Frame Time: 0.03333333333333333
0.0000 93.1000 0.0000 54.7950 -66.1703 -37.6123 -70.9391 0.0908 88.0058 75.1952 69.6432 3.5830 4.2728 16.0650 12.2152 -126.2060 30.2336 173.2967 -170.1574 68.7135 -150.3975 0.0903 -5.2875 3.9808 -109.9188 34.2336 -157.8421 34.9061 12.9449 -72.3214 -0.0879 -0.2969 -0.0432 -2.4344 7.6693 38.8287 -51.6708 -29.0361 108.9681 21.8954 -0.4715 87.9202 -0.1110 0.4570 0.2159 -55.2002 5.1142 106.3147 -5.1658 54.9549 -7.5217 -0.0151 -25.4675 -3.0320 6.6999 -17.6038 23.8177 -26.6759 -12.1792 104.7990 1.7187 35.3570 7.9911 0.2617 10.5094 -1.3360 1.1911 -7.0039 -4.8557 
0.0000 93.1000 0.0000 59.7727 -61.0458 -30.0197 -70.9105 0.3492 87.9989 74.9574 70.2038 5.6978 4.8763 17.2873 11.1379 -128.0237 30.3184 172.9460 -175.6397 68.7008 -146.6190 0.4635 -8.6566 2.0431 -96.7050 38.2021 -164.9583 22.7864 7.4582 -72.1265 0.0737 0.0169 0.1471 -2.1006 7.6605 36.7704 -58.5021 -28.1843 110.0708 17.7878 -0.2093 89.7974 -0.3016 0.3499 0.4447 -55.8488 5.8779 102.3541 -4.4453 51.9291 -10.6100 -0.4391 -23.3546 -3.1151 6.7842 -17.3095 22.8460 -30.3570 -15.4953 97.8147 -1.4076 31.2087 14.8662 2.1562 12.9211 -1.8384 0.3950 -5.1173 -3.3531 
0.0000 93.1000 0.0000 63.0380 -54.9905 -24.9030 -70.8486 0.0004 88.2056 73.9511 70.6707 6.9906 5.3169 18.4414 10.7992 -128.7617 30.2511 172.7431 -179.9804 69.7376 -145.4769 0.3024 -12.3889 -1.5958 -82.9433 37.5058 -170.8016 13.8722 3.2020 -76.0992 0.0412 -0.3072 0.3116 -2.1843 7.9178 34.0191 -68.0744 -28.9279 111.0036 14.2813 -0.1955 91.6863 -0.1427 0.3094 0.1597 -55.4279 6.9337 98.9365 -3.8367 48.9728 -6.4650 -1.4340 -22.8561 -2.8232 5.4882 -13.2549 10.8313 -33.5576 -17.8244 91.9766 -2.4924 28.7536 22.7158 2.8715 15.5149 -2.1235 0.8929 -12.4743 -3.1225 
0.0000 93.1000 0.0000 65.7261 -49.9457 -20.3618 -70.8937 0.0556 88.0875 72.7940 71.0748 9.1181 5.6553 19.6612 7.9234 -128.7952 30.2190 168.8870 -177.1096 69.9465 -148.1544 0.1551 -15.6799 -5.7660 -71.5607 34.3424 -172.9058 12.2333 1.5798 -80.1859 0.0799 -0.3142 -0.0125 -2.3425 7.8089 30.9138 -80.0083 -29.5286 109.0031 11.5230 0.4115 94.0025 -0.0792 0.0967 0.0120 -54.5425 7.6551 95.0728 -3.8909 46.1466 -8.9281 -1.4938 -19.9321 -2.2103 5.7003 -14.5809 11.4147 -36.8651 -19.2732 88.5509 -1.8135 28.0067 15.1286 0.2356 14.1157 -1.4003 0.8390 -13.5445 4.8996 
0.0000 93.1000 0.0000 66.1092 -44.1865 -18.3956 -71.0734 1.4447 87.9351 73.2458 70.8271 8.9443 6.1256 19.9643 6.3808 -128.1543 30.4081 167.9756 -179.0336 70.1706 -145.4077 2.0613 -17.0773 -10.0563 -62.6562 29.7978 -169.0340 16.8255 0.5389 -85.1331 -0.6975 1.6823 -1.9462 -1.7529 7.9496 28.1878 -91.7112 -28.5645 104.8225 9.2595 1.8455 95.6443 0.9117 -3.3354 -2.2553 -52.9586 8.3046 92.3068 -4.0638 42.7945 -10.7185 -0.3210 -15.8236 -3.1329 7.6462 -17.3260 10.0715 -38.7971 -21.4020 83.8794 -3.0973 27.8445 14.7051 1.2568 11.3076 -0.8163 0.6792 -16.3163 0.0889 
0.0000 93.1000 0.0000 66.9118 -38.6816 -16.5604 -70.8818 0.0963 87.8466 76.7758 71.3156 6.3918 4.6900 20.0921 3.9866 -127.2943 29.7092 166.7936 175.9513 70.0773 -141.4251 -0.1327 -17.9132 -15.9780 -57.3491 24.5680 -160.7891 18.8133 -0.1970 -88.9947 -0.4560 -0.1194 -0.1309 -1.6626 8.0753 28.2616 -103.4580 -23.3580 100.3964 11.5729 0.9627 96.3244 -0.1038 -0.1177 0.1238 -50.8732 11.0618 90.9789 -3.6119 40.9628 -11.6060 -2.5459 -12.4362 -1.2815 5.8872 -15.8974 8.0581 -40.2990 -21.3935 81.6695 -0.5221 29.2427 7.8227 -0.0588 6.9052 -0.8006 0.9460 -13.6653 2.0868 
0.0000 93.1000 0.0000 67.5778 -34.2960 -14.9457 -70.9255 0.0501 87.7832 79.7984 71.6364 3.1232 3.9890 20.2167 3.6828 -126.3401 30.1080 164.8152 173.5049 71.0074 -138.4026 -0.2962 -18.0780 -19.9020 -54.9038 20.7205 -152.7974 19.0222 -0.6830 -90.0327 -0.3466 0.0028 -0.1589 -1.5786 8.1514 29.5393 -111.8858 -17.0608 95.3017 12.7135 0.9008 96.1348 -0.2141 -0.2187 0.1037 -47.8369 12.2965 92.3869 -4.2367 41.1286 -12.4157 -3.7672 -10.5720 -0.9953 5.0895 -14.3136 10.8244 -40.9769 -21.1196 81.0407 -0.0109 29.7716 3.1303 -1.8008 4.2014 -0.3831 0.9261 -13.8567 2.9647 
0.0000 93.1000 0.0000 67.7980 -30.8414 -13.5095 -70.8698 -0.0134 87.8703 85.6782 71.6831 -2.3335 2.8305 20.3699 4.5258 -125.3501 31.3051 164.1820 169.8130 71.5929 -132.5773 -0.1976 -18.0028 -23.5493 -53.7331 19.0756 -144.6126 20.7917 -0.7611 -90.2459 -0.1070 0.0881 -0.5076 -1.7764 8.1752 30.6278 -118.3057 -10.4603 91.9793 13.7494 0.8593 95.0972 0.0887 -0.4330 -0.2441 -45.0077 14.5105 94.3701 -4.5568 42.9449 -12.0986 -4.2073 -10.2675 -1.2015 4.9727 -14.1136 15.1040 -41.6343 -20.4515 80.0919 0.3932 32.5754 1.4515 -2.1050 0.8920 0.1447 0.7506 -12.9255 1.0510 
0.0000 93.1000 0.0000 67.9295 -27.2249 -11.0810 -70.8342 0.3660 87.8028 89.5931 71.7150 -6.0912 2.1734 20.3336 4.9058 -125.1381 31.7351 161.7784 167.0267 72.6969 -133.2094 -0.0013 -17.9463 -25.3028 -53.3594 18.7357 -139.8701 24.9343 0.0038 -89.3574 0.0684 0.2582 -0.3583 -1.5986 7.6892 32.7553 -122.9924 -3.5461 90.2641 13.2030 0.0830 92.0658 0.1042 -0.3021 0.0584 -41.8591 16.2744 95.3539 -5.5506 47.1121 -12.9390 -4.2587 -10.5181 -1.3784 4.8174 -14.5965 16.8976 -42.2432 -20.2249 79.0832 1.5635 34.2468 -1.3428 -2.6533 -1.0581 0.1800 1.2574 -11.9969 0.4172 
0.0000 93.1000 0.0000 67.3652 -25.0770 -10.2660 -70.7309 -0.0262 87.9168 91.3194 71.8380 -8.0911 1.8306 20.1867 5.0868 -125.0432 32.1721 158.8506 170.0423 73.8911 -134.8390 -0.0936 -17.3001 -26.1014 -53.3993 20.0304 -137.8648 26.5807 0.7649 -87.9587 0.0827 -0.0129 0.0236 -1.9796 7.6159 35.3213 -125.8740 1.6211 90.9430 13.3585 -0.3318 88.3950 -0.0161 -0.0467 0.0227 -39.1887 16.2198 96.1386 -4.9127 50.3460 -16.1156 -4.2078 -12.3268 -1.2581 4.7518 -14.1900 15.7479 -41.3873 -19.2536 78.1193 0.7162 36.2821 -2.1300 -3.0618 -3.1399 0.3589 0.7729 -12.1866 -0.4898 
0.0000 93.1000 0.0000 67.8130 -23.6430 -9.1620 -70.6759 -0.1315 87.8609 90.2083 72.1904 -7.7470 1.9974 20.3276 6.2281 -124.1793 32.3646 156.2403 173.0287 74.8783 -137.4419 -0.0561 -16.9547 -25.9498 -53.1209 22.0018 -136.7014 23.1542 1.0165 -85.2338 -0.0404 -0.1048 0.2852 -2.2621 7.0528 37.5677 -128.0585 5.0153 90.7145 13.0709 -1.9416 82.7567 -0.0844 -0.0248 -0.0797 -38.7961 15.9922 96.1538 -5.6179 50.2588 -16.3925 -4.3479 -13.2963 -1.3122 4.4816 -13.9707 13.7590 -40.3529 -18.8153 77.4877 0.6542 37.6835 -3.3398 -4.2586 -4.3275 0.2563 0.9103 -12.4726 -2.4428 
0.0000 93.1000 0.0000 66.8948 -23.0450 -8.3640 -70.6691 -0.1015 87.9029 88.0446 72.0415 -5.1936 2.8381 20.0793 7.1986 -122.3167 32.4114 153.3140 174.4005 75.5574 -136.6976 -0.1321 -16.7063 -26.0814 -52.8287 23.6776 -135.6902 24.2689 1.6087 -84.1995 -0.3388 -0.0923 0.0289 -2.5549 7.1081 39.6931 -128.7365 6.5928 91.8815 13.0110 -3.3620 76.6663 0.1526 -0.4515 -0.5804 -38.7755 15.8790 95.3846 -5.3393 48.0636 -13.3673 -4.0670 -14.6941 -1.7465 3.7402 -11.2919 9.2499 -40.3271 -19.1159 75.9645 1.1632 37.8580 -2.8520 -5.2840 -4.0082 0.2286 0.6618 -13.1000 -1.5331 
0.0000 93.1000 0.0000 66.7756 -22.5761 -8.2898 -70.6240 -0.3926 87.9875 86.0164 72.2120 -3.6827 2.7832 20.1899 7.8912 -122.2531 32.5143 152.6057 171.5549 76.1559 -134.6271 -0.6369 -16.2641 -26.3085 -53.6693 22.9711 -134.5631 24.5561 2.5753 -82.8130 -0.0012 -0.5096 0.5441 -3.1263 6.2953 41.6838 -129.8421 6.6935 92.7169 12.5755 -4.6344 71.0558 -0.0484 0.3199 -0.0591 -38.6924 15.7509 94.1829 -4.0135 47.2940 -11.3395 -4.0897 -14.9393 -1.5052 2.9472 -8.7372 5.0303 -39.7867 -18.8567 74.9953 0.8888 38.2681 -2.3434 -4.7947 -3.9263 -0.0518 1.1793 -13.0864 -2.3760 
0.0000 93.1000 0.0000 66.9729 -22.5067 -7.1619 -70.6268 -0.3862 87.9868 87.2622 72.7246 -5.3262 2.3596 20.2292 8.5581 -123.0938 33.1263 153.4096 169.9751 76.8302 -134.8562 -1.0136 -16.5653 -26.6384 -53.5913 22.2884 -133.5480 23.7750 1.8735 -84.2095 0.0296 -0.6141 0.5496 -3.0055 5.8190 43.0589 -130.7596 5.4128 91.6741 11.4607 -4.5655 69.3044 -0.1205 0.6046 0.3320 -37.1276 15.8436 93.2529 -4.4325 49.6439 -10.7888 -3.5330 -15.0258 -1.4962 2.3944 -9.4191 6.0752 -39.0353 -19.1472 74.1626 0.7185 39.7651 -1.3626 -4.8758 -4.6893 -0.0520 1.4056 -12.1620 -4.1101 
